<mxfile host="app.diagrams.net" agent="Mozilla/5.0 (Macintosh; Intel Mac OS X 10_15_7) AppleWebKit/537.36 (KHTML, like Gecko) Chrome/139.0.0.0 Safari/537.36 Edg/139.0.0.0" version="28.1.0">
  <diagram id="C5RBs43oDa-KdzZeNtuy" name="Page-1">
    <mxGraphModel dx="980" dy="1723" grid="1" gridSize="10" guides="1" tooltips="1" connect="1" arrows="1" fold="1" page="1" pageScale="1" pageWidth="827" pageHeight="1169" math="0" shadow="0">
      <root>
        <mxCell id="WIyWlLk6GJQsqaUBKTNV-0" />
        <mxCell id="WIyWlLk6GJQsqaUBKTNV-1" parent="WIyWlLk6GJQsqaUBKTNV-0" />
        <mxCell id="enXET-YlresZvha9xVra-0" value="Shusen" style="shape=umlActor;verticalLabelPosition=bottom;verticalAlign=top;html=1;outlineConnect=0;" vertex="1" parent="WIyWlLk6GJQsqaUBKTNV-1">
          <mxGeometry x="320" y="240" width="30" height="60" as="geometry" />
        </mxCell>
        <mxCell id="enXET-YlresZvha9xVra-62" style="edgeStyle=orthogonalEdgeStyle;rounded=0;orthogonalLoop=1;jettySize=auto;html=1;entryX=0.5;entryY=1;entryDx=0;entryDy=0;" edge="1" parent="WIyWlLk6GJQsqaUBKTNV-1" source="enXET-YlresZvha9xVra-1" target="enXET-YlresZvha9xVra-49">
          <mxGeometry relative="1" as="geometry" />
        </mxCell>
        <mxCell id="enXET-YlresZvha9xVra-1" value="PlayGrounds" style="rounded=0;whiteSpace=wrap;html=1;" vertex="1" parent="WIyWlLk6GJQsqaUBKTNV-1">
          <mxGeometry x="414" y="360" width="120" height="60" as="geometry" />
        </mxCell>
        <mxCell id="enXET-YlresZvha9xVra-3" value="Quantum Edu&lt;div&gt;Quantum Software Stack for Multi-device&lt;/div&gt;&lt;div&gt;Quantum ML Tools&lt;/div&gt;&lt;div&gt;Quantum Compiler&lt;/div&gt;&lt;div&gt;Quantum Simulator&lt;/div&gt;" style="rounded=1;whiteSpace=wrap;html=1;" vertex="1" parent="WIyWlLk6GJQsqaUBKTNV-1">
          <mxGeometry x="30" y="220" width="230" height="90" as="geometry" />
        </mxCell>
        <mxCell id="enXET-YlresZvha9xVra-4" style="edgeStyle=orthogonalEdgeStyle;rounded=0;orthogonalLoop=1;jettySize=auto;html=1;entryX=0;entryY=0.3333333333333333;entryDx=0;entryDy=0;entryPerimeter=0;" edge="1" parent="WIyWlLk6GJQsqaUBKTNV-1" source="enXET-YlresZvha9xVra-3" target="enXET-YlresZvha9xVra-0">
          <mxGeometry relative="1" as="geometry">
            <Array as="points">
              <mxPoint x="280" y="260" />
              <mxPoint x="280" y="260" />
            </Array>
          </mxGeometry>
        </mxCell>
        <mxCell id="enXET-YlresZvha9xVra-5" value="Edric" style="shape=umlActor;verticalLabelPosition=bottom;verticalAlign=top;html=1;outlineConnect=0;" vertex="1" parent="WIyWlLk6GJQsqaUBKTNV-1">
          <mxGeometry x="320" y="400" width="30" height="60" as="geometry" />
        </mxCell>
        <mxCell id="enXET-YlresZvha9xVra-6" value="Quantum Walk&lt;div&gt;Quantum Hamiltonia Simulation&amp;nbsp;&lt;/div&gt;" style="rounded=1;whiteSpace=wrap;html=1;" vertex="1" parent="WIyWlLk6GJQsqaUBKTNV-1">
          <mxGeometry x="30" y="370" width="230" height="90" as="geometry" />
        </mxCell>
        <mxCell id="enXET-YlresZvha9xVra-7" style="edgeStyle=orthogonalEdgeStyle;rounded=0;orthogonalLoop=1;jettySize=auto;html=1;entryX=0;entryY=0.3333333333333333;entryDx=0;entryDy=0;entryPerimeter=0;" edge="1" parent="WIyWlLk6GJQsqaUBKTNV-1" source="enXET-YlresZvha9xVra-6" target="enXET-YlresZvha9xVra-5">
          <mxGeometry relative="1" as="geometry" />
        </mxCell>
        <mxCell id="enXET-YlresZvha9xVra-9" value="Pascal" style="shape=umlActor;verticalLabelPosition=bottom;verticalAlign=top;html=1;outlineConnect=0;" vertex="1" parent="WIyWlLk6GJQsqaUBKTNV-1">
          <mxGeometry x="320" y="525" width="30" height="60" as="geometry" />
        </mxCell>
        <mxCell id="enXET-YlresZvha9xVra-10" value="Quantum HPC Bridge" style="rounded=1;whiteSpace=wrap;html=1;" vertex="1" parent="WIyWlLk6GJQsqaUBKTNV-1">
          <mxGeometry x="30" y="495" width="230" height="90" as="geometry" />
        </mxCell>
        <mxCell id="enXET-YlresZvha9xVra-11" style="edgeStyle=orthogonalEdgeStyle;rounded=0;orthogonalLoop=1;jettySize=auto;html=1;entryX=0;entryY=0.3333333333333333;entryDx=0;entryDy=0;entryPerimeter=0;" edge="1" parent="WIyWlLk6GJQsqaUBKTNV-1" source="enXET-YlresZvha9xVra-10" target="enXET-YlresZvha9xVra-9">
          <mxGeometry relative="1" as="geometry" />
        </mxCell>
        <mxCell id="enXET-YlresZvha9xVra-25" style="edgeStyle=orthogonalEdgeStyle;rounded=0;orthogonalLoop=1;jettySize=auto;html=1;entryX=1;entryY=0.5;entryDx=0;entryDy=0;" edge="1" parent="WIyWlLk6GJQsqaUBKTNV-1" source="enXET-YlresZvha9xVra-12" target="enXET-YlresZvha9xVra-1">
          <mxGeometry relative="1" as="geometry" />
        </mxCell>
        <mxCell id="enXET-YlresZvha9xVra-12" value="Yongfan" style="shape=umlActor;verticalLabelPosition=bottom;verticalAlign=top;html=1;outlineConnect=0;" vertex="1" parent="WIyWlLk6GJQsqaUBKTNV-1">
          <mxGeometry x="590" y="250" width="30" height="60" as="geometry" />
        </mxCell>
        <mxCell id="enXET-YlresZvha9xVra-13" value="Frontend&lt;div&gt;Animations&lt;/div&gt;" style="rounded=1;whiteSpace=wrap;html=1;" vertex="1" parent="WIyWlLk6GJQsqaUBKTNV-1">
          <mxGeometry x="670" y="225" width="230" height="90" as="geometry" />
        </mxCell>
        <mxCell id="enXET-YlresZvha9xVra-14" style="edgeStyle=orthogonalEdgeStyle;rounded=0;orthogonalLoop=1;jettySize=auto;html=1;entryX=1;entryY=0.3333333333333333;entryDx=0;entryDy=0;entryPerimeter=0;" edge="1" parent="WIyWlLk6GJQsqaUBKTNV-1" source="enXET-YlresZvha9xVra-13" target="enXET-YlresZvha9xVra-12">
          <mxGeometry relative="1" as="geometry" />
        </mxCell>
        <mxCell id="enXET-YlresZvha9xVra-15" value="Backend&lt;div&gt;Containerization&lt;/div&gt;&lt;div&gt;&lt;br&gt;&lt;/div&gt;" style="rounded=1;whiteSpace=wrap;html=1;" vertex="1" parent="WIyWlLk6GJQsqaUBKTNV-1">
          <mxGeometry x="670" y="405" width="230" height="90" as="geometry" />
        </mxCell>
        <mxCell id="enXET-YlresZvha9xVra-26" style="edgeStyle=orthogonalEdgeStyle;rounded=0;orthogonalLoop=1;jettySize=auto;html=1;entryX=1;entryY=0.5;entryDx=0;entryDy=0;" edge="1" parent="WIyWlLk6GJQsqaUBKTNV-1" source="enXET-YlresZvha9xVra-16" target="enXET-YlresZvha9xVra-1">
          <mxGeometry relative="1" as="geometry" />
        </mxCell>
        <mxCell id="enXET-YlresZvha9xVra-16" value="Yunfan" style="shape=umlActor;verticalLabelPosition=bottom;verticalAlign=top;html=1;outlineConnect=0;" vertex="1" parent="WIyWlLk6GJQsqaUBKTNV-1">
          <mxGeometry x="590" y="430" width="30" height="60" as="geometry" />
        </mxCell>
        <mxCell id="enXET-YlresZvha9xVra-19" style="edgeStyle=orthogonalEdgeStyle;rounded=0;orthogonalLoop=1;jettySize=auto;html=1;entryX=1;entryY=0.3333333333333333;entryDx=0;entryDy=0;entryPerimeter=0;" edge="1" parent="WIyWlLk6GJQsqaUBKTNV-1" source="enXET-YlresZvha9xVra-15" target="enXET-YlresZvha9xVra-16">
          <mxGeometry relative="1" as="geometry" />
        </mxCell>
        <mxCell id="enXET-YlresZvha9xVra-22" style="edgeStyle=orthogonalEdgeStyle;rounded=0;orthogonalLoop=1;jettySize=auto;html=1;entryX=0.002;entryY=0.64;entryDx=0;entryDy=0;entryPerimeter=0;" edge="1" parent="WIyWlLk6GJQsqaUBKTNV-1" source="enXET-YlresZvha9xVra-0" target="enXET-YlresZvha9xVra-1">
          <mxGeometry relative="1" as="geometry" />
        </mxCell>
        <mxCell id="enXET-YlresZvha9xVra-23" style="edgeStyle=orthogonalEdgeStyle;rounded=0;orthogonalLoop=1;jettySize=auto;html=1;entryX=-0.006;entryY=0.624;entryDx=0;entryDy=0;entryPerimeter=0;" edge="1" parent="WIyWlLk6GJQsqaUBKTNV-1" source="enXET-YlresZvha9xVra-5" target="enXET-YlresZvha9xVra-1">
          <mxGeometry relative="1" as="geometry" />
        </mxCell>
        <mxCell id="enXET-YlresZvha9xVra-24" style="edgeStyle=orthogonalEdgeStyle;rounded=0;orthogonalLoop=1;jettySize=auto;html=1;entryX=0.002;entryY=0.64;entryDx=0;entryDy=0;entryPerimeter=0;" edge="1" parent="WIyWlLk6GJQsqaUBKTNV-1" source="enXET-YlresZvha9xVra-9" target="enXET-YlresZvha9xVra-1">
          <mxGeometry relative="1" as="geometry" />
        </mxCell>
        <mxCell id="enXET-YlresZvha9xVra-48" style="edgeStyle=orthogonalEdgeStyle;rounded=0;orthogonalLoop=1;jettySize=auto;html=1;" edge="1" parent="WIyWlLk6GJQsqaUBKTNV-1" source="enXET-YlresZvha9xVra-28" target="enXET-YlresZvha9xVra-1">
          <mxGeometry relative="1" as="geometry" />
        </mxCell>
        <mxCell id="enXET-YlresZvha9xVra-28" value="Domain" style="ellipse;whiteSpace=wrap;html=1;" vertex="1" parent="WIyWlLk6GJQsqaUBKTNV-1">
          <mxGeometry x="410" y="600" width="120" height="80" as="geometry" />
        </mxCell>
        <mxCell id="enXET-YlresZvha9xVra-29" value="Logistics" style="rounded=1;whiteSpace=wrap;html=1;" vertex="1" parent="WIyWlLk6GJQsqaUBKTNV-1">
          <mxGeometry x="240" y="660" width="80" height="30" as="geometry" />
        </mxCell>
        <mxCell id="enXET-YlresZvha9xVra-30" value="Finances" style="rounded=1;whiteSpace=wrap;html=1;" vertex="1" parent="WIyWlLk6GJQsqaUBKTNV-1">
          <mxGeometry x="320" y="710" width="80" height="30" as="geometry" />
        </mxCell>
        <mxCell id="enXET-YlresZvha9xVra-46" style="edgeStyle=orthogonalEdgeStyle;rounded=0;orthogonalLoop=1;jettySize=auto;html=1;entryX=0.5;entryY=1;entryDx=0;entryDy=0;" edge="1" parent="WIyWlLk6GJQsqaUBKTNV-1" source="enXET-YlresZvha9xVra-31" target="enXET-YlresZvha9xVra-28">
          <mxGeometry relative="1" as="geometry" />
        </mxCell>
        <mxCell id="enXET-YlresZvha9xVra-31" value="&lt;font style=&quot;font-size: 7px;&quot;&gt;CFD (&lt;span style=&quot;color: rgb(16, 18, 20); font-family: Poppins-Medium; text-align: left; background-color: rgb(255, 255, 255);&quot;&gt;computational fluid dynamics&lt;/span&gt;)&lt;/font&gt;" style="rounded=1;whiteSpace=wrap;html=1;" vertex="1" parent="WIyWlLk6GJQsqaUBKTNV-1">
          <mxGeometry x="430" y="720" width="80" height="30" as="geometry" />
        </mxCell>
        <mxCell id="enXET-YlresZvha9xVra-47" style="edgeStyle=orthogonalEdgeStyle;rounded=0;orthogonalLoop=1;jettySize=auto;html=1;entryX=1;entryY=0.5;entryDx=0;entryDy=0;" edge="1" parent="WIyWlLk6GJQsqaUBKTNV-1" source="enXET-YlresZvha9xVra-32" target="enXET-YlresZvha9xVra-28">
          <mxGeometry relative="1" as="geometry" />
        </mxCell>
        <mxCell id="enXET-YlresZvha9xVra-32" value="Environment" style="rounded=1;whiteSpace=wrap;html=1;" vertex="1" parent="WIyWlLk6GJQsqaUBKTNV-1">
          <mxGeometry x="530" y="710" width="80" height="30" as="geometry" />
        </mxCell>
        <mxCell id="enXET-YlresZvha9xVra-36" style="edgeStyle=orthogonalEdgeStyle;rounded=0;orthogonalLoop=1;jettySize=auto;html=1;entryX=0.5;entryY=1;entryDx=0;entryDy=0;" edge="1" parent="WIyWlLk6GJQsqaUBKTNV-1" source="enXET-YlresZvha9xVra-33" target="enXET-YlresZvha9xVra-29">
          <mxGeometry relative="1" as="geometry" />
        </mxCell>
        <mxCell id="enXET-YlresZvha9xVra-33" value="Quera" style="shape=process;whiteSpace=wrap;html=1;backgroundOutline=1;" vertex="1" parent="WIyWlLk6GJQsqaUBKTNV-1">
          <mxGeometry x="240" y="780" width="70" height="35" as="geometry" />
        </mxCell>
        <mxCell id="enXET-YlresZvha9xVra-37" style="edgeStyle=orthogonalEdgeStyle;rounded=0;orthogonalLoop=1;jettySize=auto;html=1;entryX=0.5;entryY=1;entryDx=0;entryDy=0;" edge="1" parent="WIyWlLk6GJQsqaUBKTNV-1" source="enXET-YlresZvha9xVra-34" target="enXET-YlresZvha9xVra-30">
          <mxGeometry relative="1" as="geometry" />
        </mxCell>
        <mxCell id="enXET-YlresZvha9xVra-34" value="Already have" style="shape=process;whiteSpace=wrap;html=1;backgroundOutline=1;" vertex="1" parent="WIyWlLk6GJQsqaUBKTNV-1">
          <mxGeometry x="320" y="780" width="70" height="35" as="geometry" />
        </mxCell>
        <mxCell id="enXET-YlresZvha9xVra-40" style="edgeStyle=orthogonalEdgeStyle;rounded=0;orthogonalLoop=1;jettySize=auto;html=1;entryX=0.5;entryY=1;entryDx=0;entryDy=0;" edge="1" parent="WIyWlLk6GJQsqaUBKTNV-1" source="enXET-YlresZvha9xVra-38" target="enXET-YlresZvha9xVra-31">
          <mxGeometry relative="1" as="geometry" />
        </mxCell>
        <mxCell id="enXET-YlresZvha9xVra-38" value="Melb U" style="shape=process;whiteSpace=wrap;html=1;backgroundOutline=1;" vertex="1" parent="WIyWlLk6GJQsqaUBKTNV-1">
          <mxGeometry x="435" y="780" width="70" height="35" as="geometry" />
        </mxCell>
        <mxCell id="enXET-YlresZvha9xVra-39" value="India" style="shape=process;whiteSpace=wrap;html=1;backgroundOutline=1;" vertex="1" parent="WIyWlLk6GJQsqaUBKTNV-1">
          <mxGeometry x="540" y="780" width="70" height="35" as="geometry" />
        </mxCell>
        <mxCell id="enXET-YlresZvha9xVra-43" style="edgeStyle=orthogonalEdgeStyle;rounded=0;orthogonalLoop=1;jettySize=auto;html=1;entryX=0.563;entryY=1;entryDx=0;entryDy=0;entryPerimeter=0;" edge="1" parent="WIyWlLk6GJQsqaUBKTNV-1" source="enXET-YlresZvha9xVra-39" target="enXET-YlresZvha9xVra-32">
          <mxGeometry relative="1" as="geometry" />
        </mxCell>
        <mxCell id="enXET-YlresZvha9xVra-44" style="edgeStyle=orthogonalEdgeStyle;rounded=0;orthogonalLoop=1;jettySize=auto;html=1;entryX=-0.008;entryY=0.611;entryDx=0;entryDy=0;entryPerimeter=0;" edge="1" parent="WIyWlLk6GJQsqaUBKTNV-1" source="enXET-YlresZvha9xVra-29" target="enXET-YlresZvha9xVra-28">
          <mxGeometry relative="1" as="geometry" />
        </mxCell>
        <mxCell id="enXET-YlresZvha9xVra-45" style="edgeStyle=orthogonalEdgeStyle;rounded=0;orthogonalLoop=1;jettySize=auto;html=1;entryX=0.194;entryY=0.855;entryDx=0;entryDy=0;entryPerimeter=0;exitX=0.5;exitY=0;exitDx=0;exitDy=0;" edge="1" parent="WIyWlLk6GJQsqaUBKTNV-1" source="enXET-YlresZvha9xVra-30" target="enXET-YlresZvha9xVra-28">
          <mxGeometry relative="1" as="geometry" />
        </mxCell>
        <mxCell id="enXET-YlresZvha9xVra-57" style="edgeStyle=orthogonalEdgeStyle;rounded=0;orthogonalLoop=1;jettySize=auto;html=1;entryX=1;entryY=0.5;entryDx=0;entryDy=0;" edge="1" parent="WIyWlLk6GJQsqaUBKTNV-1" source="enXET-YlresZvha9xVra-49" target="enXET-YlresZvha9xVra-50">
          <mxGeometry relative="1" as="geometry" />
        </mxCell>
        <mxCell id="enXET-YlresZvha9xVra-58" style="edgeStyle=orthogonalEdgeStyle;rounded=0;orthogonalLoop=1;jettySize=auto;html=1;entryX=1;entryY=0.5;entryDx=0;entryDy=0;" edge="1" parent="WIyWlLk6GJQsqaUBKTNV-1" source="enXET-YlresZvha9xVra-49" target="enXET-YlresZvha9xVra-51">
          <mxGeometry relative="1" as="geometry" />
        </mxCell>
        <mxCell id="enXET-YlresZvha9xVra-60" style="edgeStyle=orthogonalEdgeStyle;rounded=0;orthogonalLoop=1;jettySize=auto;html=1;entryX=0;entryY=0.5;entryDx=0;entryDy=0;" edge="1" parent="WIyWlLk6GJQsqaUBKTNV-1" source="enXET-YlresZvha9xVra-49" target="enXET-YlresZvha9xVra-53">
          <mxGeometry relative="1" as="geometry" />
        </mxCell>
        <mxCell id="enXET-YlresZvha9xVra-61" style="edgeStyle=orthogonalEdgeStyle;rounded=0;orthogonalLoop=1;jettySize=auto;html=1;entryX=0;entryY=0.5;entryDx=0;entryDy=0;" edge="1" parent="WIyWlLk6GJQsqaUBKTNV-1" source="enXET-YlresZvha9xVra-49" target="enXET-YlresZvha9xVra-55">
          <mxGeometry relative="1" as="geometry" />
        </mxCell>
        <mxCell id="enXET-YlresZvha9xVra-65" style="edgeStyle=orthogonalEdgeStyle;rounded=0;orthogonalLoop=1;jettySize=auto;html=1;entryX=0.5;entryY=1;entryDx=0;entryDy=0;" edge="1" parent="WIyWlLk6GJQsqaUBKTNV-1" source="enXET-YlresZvha9xVra-49" target="enXET-YlresZvha9xVra-64">
          <mxGeometry relative="1" as="geometry" />
        </mxCell>
        <mxCell id="enXET-YlresZvha9xVra-66" style="edgeStyle=orthogonalEdgeStyle;rounded=0;orthogonalLoop=1;jettySize=auto;html=1;entryX=0;entryY=0.5;entryDx=0;entryDy=0;" edge="1" parent="WIyWlLk6GJQsqaUBKTNV-1" source="enXET-YlresZvha9xVra-49" target="enXET-YlresZvha9xVra-52">
          <mxGeometry relative="1" as="geometry" />
        </mxCell>
        <mxCell id="enXET-YlresZvha9xVra-49" value="Possible Products" style="ellipse;whiteSpace=wrap;html=1;" vertex="1" parent="WIyWlLk6GJQsqaUBKTNV-1">
          <mxGeometry x="460" y="50" width="120" height="80" as="geometry" />
        </mxCell>
        <mxCell id="enXET-YlresZvha9xVra-50" value="Quantum Simulation Tools" style="shape=process;whiteSpace=wrap;html=1;backgroundOutline=1;" vertex="1" parent="WIyWlLk6GJQsqaUBKTNV-1">
          <mxGeometry x="240" y="-40" width="120" height="60" as="geometry" />
        </mxCell>
        <mxCell id="enXET-YlresZvha9xVra-51" value="Quantum HPC Bridge" style="shape=process;whiteSpace=wrap;html=1;backgroundOutline=1;" vertex="1" parent="WIyWlLk6GJQsqaUBKTNV-1">
          <mxGeometry x="240" y="-110" width="120" height="60" as="geometry" />
        </mxCell>
        <mxCell id="enXET-YlresZvha9xVra-52" value="Quantum Finance Tools" style="shape=process;whiteSpace=wrap;html=1;backgroundOutline=1;" vertex="1" parent="WIyWlLk6GJQsqaUBKTNV-1">
          <mxGeometry x="700" y="-120" width="120" height="60" as="geometry" />
        </mxCell>
        <mxCell id="enXET-YlresZvha9xVra-53" value="Quantum Edu Pages" style="shape=process;whiteSpace=wrap;html=1;backgroundOutline=1;" vertex="1" parent="WIyWlLk6GJQsqaUBKTNV-1">
          <mxGeometry x="700" y="-40" width="120" height="60" as="geometry" />
        </mxCell>
        <mxCell id="enXET-YlresZvha9xVra-54" value="Quantum Independent Software Stack" style="shape=process;whiteSpace=wrap;html=1;backgroundOutline=1;" vertex="1" parent="WIyWlLk6GJQsqaUBKTNV-1">
          <mxGeometry x="240" y="50" width="120" height="60" as="geometry" />
        </mxCell>
        <mxCell id="enXET-YlresZvha9xVra-55" value="Quantum ML Software" style="shape=process;whiteSpace=wrap;html=1;backgroundOutline=1;" vertex="1" parent="WIyWlLk6GJQsqaUBKTNV-1">
          <mxGeometry x="700" y="50" width="120" height="60" as="geometry" />
        </mxCell>
        <mxCell id="enXET-YlresZvha9xVra-56" style="edgeStyle=orthogonalEdgeStyle;rounded=0;orthogonalLoop=1;jettySize=auto;html=1;entryX=1.004;entryY=0.418;entryDx=0;entryDy=0;entryPerimeter=0;" edge="1" parent="WIyWlLk6GJQsqaUBKTNV-1" source="enXET-YlresZvha9xVra-49" target="enXET-YlresZvha9xVra-54">
          <mxGeometry relative="1" as="geometry" />
        </mxCell>
        <mxCell id="enXET-YlresZvha9xVra-63" value="Quantum Edu Pages" style="rounded=1;whiteSpace=wrap;html=1;" vertex="1" parent="WIyWlLk6GJQsqaUBKTNV-1">
          <mxGeometry x="240" y="-300" width="120" height="60" as="geometry" />
        </mxCell>
        <mxCell id="enXET-YlresZvha9xVra-72" style="edgeStyle=orthogonalEdgeStyle;rounded=0;orthogonalLoop=1;jettySize=auto;html=1;" edge="1" parent="WIyWlLk6GJQsqaUBKTNV-1" source="enXET-YlresZvha9xVra-64" target="enXET-YlresZvha9xVra-67">
          <mxGeometry relative="1" as="geometry" />
        </mxCell>
        <mxCell id="enXET-YlresZvha9xVra-73" style="edgeStyle=orthogonalEdgeStyle;rounded=0;orthogonalLoop=1;jettySize=auto;html=1;entryX=1;entryY=0.5;entryDx=0;entryDy=0;" edge="1" parent="WIyWlLk6GJQsqaUBKTNV-1" source="enXET-YlresZvha9xVra-64" target="enXET-YlresZvha9xVra-63">
          <mxGeometry relative="1" as="geometry" />
        </mxCell>
        <mxCell id="enXET-YlresZvha9xVra-74" style="edgeStyle=orthogonalEdgeStyle;rounded=0;orthogonalLoop=1;jettySize=auto;html=1;entryX=0.5;entryY=1;entryDx=0;entryDy=0;" edge="1" parent="WIyWlLk6GJQsqaUBKTNV-1" source="enXET-YlresZvha9xVra-64" target="enXET-YlresZvha9xVra-68">
          <mxGeometry relative="1" as="geometry" />
        </mxCell>
        <mxCell id="enXET-YlresZvha9xVra-75" style="edgeStyle=orthogonalEdgeStyle;rounded=0;orthogonalLoop=1;jettySize=auto;html=1;entryX=0.5;entryY=1;entryDx=0;entryDy=0;" edge="1" parent="WIyWlLk6GJQsqaUBKTNV-1" source="enXET-YlresZvha9xVra-64" target="enXET-YlresZvha9xVra-69">
          <mxGeometry relative="1" as="geometry" />
        </mxCell>
        <mxCell id="enXET-YlresZvha9xVra-77" style="edgeStyle=orthogonalEdgeStyle;rounded=0;orthogonalLoop=1;jettySize=auto;html=1;entryX=0;entryY=0.5;entryDx=0;entryDy=0;" edge="1" parent="WIyWlLk6GJQsqaUBKTNV-1" source="enXET-YlresZvha9xVra-64" target="enXET-YlresZvha9xVra-70">
          <mxGeometry relative="1" as="geometry">
            <Array as="points">
              <mxPoint x="690" y="-170" />
              <mxPoint x="690" y="-260" />
            </Array>
          </mxGeometry>
        </mxCell>
        <mxCell id="enXET-YlresZvha9xVra-78" style="edgeStyle=orthogonalEdgeStyle;rounded=0;orthogonalLoop=1;jettySize=auto;html=1;entryX=0;entryY=0.5;entryDx=0;entryDy=0;" edge="1" parent="WIyWlLk6GJQsqaUBKTNV-1" source="enXET-YlresZvha9xVra-64" target="enXET-YlresZvha9xVra-71">
          <mxGeometry relative="1" as="geometry" />
        </mxCell>
        <mxCell id="enXET-YlresZvha9xVra-64" value="Play? Ground!" style="ellipse;whiteSpace=wrap;html=1;" vertex="1" parent="WIyWlLk6GJQsqaUBKTNV-1">
          <mxGeometry x="460" y="-210" width="120" height="80" as="geometry" />
        </mxCell>
        <mxCell id="enXET-YlresZvha9xVra-67" value="Quantum Monte Carlo for Portfolio" style="rounded=1;whiteSpace=wrap;html=1;" vertex="1" parent="WIyWlLk6GJQsqaUBKTNV-1">
          <mxGeometry x="240" y="-230" width="120" height="60" as="geometry" />
        </mxCell>
        <mxCell id="enXET-YlresZvha9xVra-68" value="Quantum HPC Bridge Animations" style="rounded=1;whiteSpace=wrap;html=1;" vertex="1" parent="WIyWlLk6GJQsqaUBKTNV-1">
          <mxGeometry x="420" y="-310" width="120" height="60" as="geometry" />
        </mxCell>
        <mxCell id="enXET-YlresZvha9xVra-69" value="Quantum ML for MINST" style="rounded=1;whiteSpace=wrap;html=1;" vertex="1" parent="WIyWlLk6GJQsqaUBKTNV-1">
          <mxGeometry x="560" y="-310" width="120" height="60" as="geometry" />
        </mxCell>
        <mxCell id="enXET-YlresZvha9xVra-70" value="AWS braket enhancer with Pawsey" style="rounded=1;whiteSpace=wrap;html=1;" vertex="1" parent="WIyWlLk6GJQsqaUBKTNV-1">
          <mxGeometry x="710" y="-290" width="120" height="60" as="geometry" />
        </mxCell>
        <mxCell id="enXET-YlresZvha9xVra-71" value="Quantum Random Generator" style="rounded=1;whiteSpace=wrap;html=1;" vertex="1" parent="WIyWlLk6GJQsqaUBKTNV-1">
          <mxGeometry x="770" y="-200" width="120" height="60" as="geometry" />
        </mxCell>
      </root>
    </mxGraphModel>
  </diagram>
</mxfile>
